<?xml version="1.0" standalone="no"?>
<!DOCTYPE svg PUBLIC "-//W3C//DTD SVG 20010904//EN"
 "http://www.w3.org/TR/2001/REC-SVG-20010904/DTD/svg10.dtd">
<svg version="1.0" xmlns="http://www.w3.org/2000/svg"
 width="50.000000pt" height="50.000000pt" viewBox="0 0 50.000000 50.000000"
 preserveAspectRatio="xMidYMid meet">
<metadata>
Created by potrace 1.16, written by Peter Selinger 2001-2019
</metadata>
<g transform="translate(0.000000,50.000000) scale(0.100000,-0.100000)"
fill="#000000" stroke="none">
<path d="M0 250 l0 -250 75 0 75 0 0 39 c0 36 -3 40 -27 43 -20 2 -29 9 -31
25 -2 16 -10 23 -26 23 -40 0 -47 21 -44 121 l3 94 32 10 c24 7 36 18 43 41 6
18 18 38 26 44 7 7 14 23 14 36 0 23 -3 24 -70 24 l-70 0 0 -250z"/>
<path d="M358 483 c-2 -10 6 -31 19 -46 13 -16 23 -41 23 -57 0 -23 4 -27 19
-23 10 3 28 0 40 -6 19 -11 21 -20 21 -104 0 -99 -7 -117 -46 -117 -16 0 -24
-7 -26 -22 -2 -17 -11 -24 -30 -26 -25 -3 -28 -7 -28 -43 l0 -39 75 0 75 0 0
250 0 250 -69 0 c-58 0 -70 -3 -73 -17z"/>
</g>
</svg>
