<?xml version="1.0" standalone="no"?>
<!DOCTYPE svg PUBLIC "-//W3C//DTD SVG 20010904//EN"
 "http://www.w3.org/TR/2001/REC-SVG-20010904/DTD/svg10.dtd">
<svg version="1.0" xmlns="http://www.w3.org/2000/svg"
 width="50.000000pt" height="50.000000pt" viewBox="0 0 50.000000 50.000000"
 preserveAspectRatio="xMidYMid meet">
<metadata>
Created by potrace 1.16, written by Peter Selinger 2001-2019
</metadata>
<g transform="translate(0.000000,50.000000) scale(0.100000,-0.100000)"
fill="#000000" stroke="none">
<path d="M120 348 c-44 -30 -60 -61 -60 -119 0 -70 26 -133 72 -175 35 -31 44
-35 72 -28 38 9 71 8 109 -1 24 -6 34 -2 64 26 19 19 41 46 49 61 13 24 12 28
-4 40 -53 37 -55 126 -5 163 12 9 11 14 -7 30 -17 15 -34 19 -71 17 -97 -5
-115 -5 -149 2 -28 6 -42 3 -70 -16z"/>
</g>
</svg>
